<?xml version="1.0" encoding="utf-8"?>
<!-- Generator: Adobe Illustrator 22.1.0, SVG Export Plug-In . SVG Version: 6.00 Build 0)  -->
<svg version="1.1" id="Layer_1" xmlns="http://www.w3.org/2000/svg" xmlns:xlink="http://www.w3.org/1999/xlink" x="0px" y="0px"
	 viewBox="0 0 250.1 199.9" style="enable-background:new 0 0 250.1 199.9;" xml:space="preserve">
<style type="text/css">
	.st0{fill:#502D16;}
	.st1{fill:#A05A2C;}
</style>
<g>
	<path class="st0" d="M248.9,55.3c-0.1,0.2-0.1,0.4-0.2,0.6c-0.2,0.6-0.4,1.1-0.6,1.5c-0.1,0.2-0.2,0.3-0.2,0.5
		c-0.2,0.3-0.3,0.5-0.5,0.7l-0.1,0.1c-2.2,1.8-15.6-8.7-28.1-4.7c-0.2,0-0.3,0.1-0.5,0.2c-0.3,0.1-0.7,0.2-1,0.4l0,0
		c-0.2,0.1-0.3,0.1-0.5,0.2c-5.6,2.6-10.2,5.2-13.5,7.3c-1.1-2.3-2.3-4.6-3.6-6.9c-0.8-1.3-1.5-2.7-2.4-4c-0.4-0.7-0.9-1.5-1.3-2.2
		c-0.8-1.4-1.7-2.7-2.6-4c13.8-14.9,44.9-22.2,51.8-13.8c5.5,6.8,5,17.4,3.5,23.3c0,0,0,0,0,0.1C249.1,54.9,249,55.1,248.9,55.3
		L248.9,55.3z"/>
	<path class="st1" d="M171.9,170.9L171.9,170.9c-0.1,0.3-0.3,0.7-0.4,1l0,0c-0.1,0.3-0.3,0.6-0.4,1l0,0c-0.2,0.5-0.5,0.9-0.8,1.4
		l0,0c-0.8,1.4-1.8,2.6-3,3.7l0,0l0,0c0,0,0,0,0.1,0c-0.4,0.3-0.8,0.6-1.2,1l0,0c-0.8,0.7-1.7,1.3-2.6,2c-0.4,0.3-0.9,0.6-1.3,1
		c-4,2.9-8.2,5.4-12.7,7.5c-3.1,1.4-6.3,2.6-9.5,3.6c-8,2.7-16.3,4.5-24.7,5.6c-23.5,3-47.9,0-70.2-7.1c-5.2-1.7-10.7-3.7-15.9-6.1
		c-0.3-0.1-0.5-0.2-0.8-0.4c-1.8-0.9-3.7-1.8-5.4-2.8c-0.4-0.2-0.8-0.4-1.1-0.7c-0.1,0-0.2-0.1-0.2-0.1c-0.3-0.2-0.6-0.4-0.9-0.6
		c-0.8-0.5-1.5-1-2.2-1.5c-6.9-4.7-12.7-10.8-16.1-18.8c-5.9-22.3-1-45.9,6.9-67c11.1-29.2,29-58.4,58-72.8c3.3-1.6,6.6-3,10-4.2
		c14.5-3.4,24.9,11.2,38.8,28.2c16.6,20.3,33.1,48.1,44.9,74.9l0,0c0.2,0.4,0.4,0.8,0.5,1.2c1.1,2.5,2.1,5,3.1,7.5
		C171.3,144.8,175.6,160.3,171.9,170.9z"/>
	<path class="st0" d="M187.6,172.5c-0.1,0.1-0.1,0.1-0.2,0.2c-0.5,0.5-1,1.1-1.5,1.6c0,0,0,0-0.1,0.1c-0.3,0.3-0.6,0.6-0.9,1
		c-0.2,0.2-0.4,0.4-0.6,0.7l0,0c-0.5,0.5-1,1-1.5,1.4l0,0c-0.3,0.2-0.6,0.5-0.9,0.7l0,0c-0.3,0.2-0.6,0.4-0.9,0.6
		c-0.1,0.1-0.2,0.1-0.3,0.2c-0.5,0.3-1.1,0.5-1.6,0.6c-2.2,0.7-4.4,0.7-6.3,0.4l0,0c-0.6-0.1-1.2-0.2-1.7-0.4
		c-0.2-0.1-0.4-0.1-0.6-0.2c-0.1,0-0.2-0.1-0.3-0.1c-0.2-0.1-0.4-0.1-0.5-0.2c-0.1,0-0.2-0.1-0.3-0.1c-0.2-0.1-0.3-0.1-0.5-0.2
		c-0.1,0-0.2-0.1-0.2-0.1c-0.1-0.1-0.3-0.1-0.4-0.2c-0.2-0.1-0.4-0.2-0.5-0.2c-0.2-0.1-0.4-0.2-0.5-0.3l0,0c0,0,0,0-0.1,0l0,0l0,0
		c1.2-1.1,2.2-2.4,3-3.7l0,0c0.3-0.5,0.5-0.9,0.8-1.4l0,0c0.2-0.3,0.3-0.6,0.4-1l0,0c0.1-0.3,0.3-0.7,0.4-1l0,0
		c3.8-10.6-0.5-26.1-7.1-42.4c-1-2.5-2.1-5-3.1-7.5c-0.2-0.4-0.3-0.8-0.5-1.2c-11.8-26.8-28.3-54.6-44.9-74.9
		C102.3,28,91.9,13.3,77.4,16.7c-1.2,0.3-2.5,0.7-3.7,1.3c-0.1,0.2,0.4-11.8,9.8-14.1c40-12.6,86.2,6.1,110.4,41.2
		c0.9,1.3,1.8,2.6,2.6,4c0.5,0.7,0.9,1.5,1.3,2.2c0.8,1.3,1.6,2.6,2.4,4c1.3,2.2,2.5,4.5,3.6,6.9l0,0c0.4,0.9,0.8,1.7,1.2,2.6l0,0
		C219.6,97.7,217.7,138.1,187.6,172.5z"/>
</g>
</svg>
